<?xml version="1.0" encoding="utf-8" standalone="no"?>
<!DOCTYPE svg PUBLIC "-//W3C//DTD SVG 1.1//EN"
  "http://www.w3.org/Graphics/SVG/1.1/DTD/svg11.dtd">
<svg xmlns:xlink="http://www.w3.org/1999/xlink" width="98.686pt" height="45.36pt" viewBox="0 0 98.686 45.36" xmlns="http://www.w3.org/2000/svg" version="1.1">
 <metadata>
  <rdf:RDF xmlns:dc="http://purl.org/dc/elements/1.1/" xmlns:cc="http://creativecommons.org/ns#" xmlns:rdf="http://www.w3.org/1999/02/22-rdf-syntax-ns#">
   <cc:Work>
    <dc:type rdf:resource="http://purl.org/dc/dcmitype/StillImage"/>
    <dc:date>2024-07-17T20:03:56.183388</dc:date>
    <dc:format>image/svg+xml</dc:format>
    <dc:creator>
     <cc:Agent>
      <dc:title>Matplotlib v3.9.0, https://matplotlib.org/</dc:title>
     </cc:Agent>
    </dc:creator>
   </cc:Work>
  </rdf:RDF>
 </metadata>
 <defs>
  <style type="text/css">*{stroke-linejoin: round; stroke-linecap: butt}</style>
 </defs>
 <g id="figure_1">
  <g id="patch_1">
   <path d="M 0 45.36 
L 98.686 45.36 
L 98.686 0 
L 0 0 
L 0 45.36 
z
" style="fill: none"/>
  </g>
  <g id="axes_1">
   <g id="patch_2">
    <path d="M 74.328 27 
C 75.473677 27 76.572585 26.544818 77.382701 25.734701 
C 78.192818 24.924585 78.648 23.825677 78.648 22.68 
C 78.648 21.534323 78.192818 20.435415 77.382701 19.625299 
C 76.572585 18.815182 75.473677 18.36 74.328 18.36 
C 73.182323 18.36 72.083415 18.815182 71.273299 19.625299 
C 70.463182 20.435415 70.008 21.534323 70.008 22.68 
C 70.008 23.825677 70.463182 24.924585 71.273299 25.734701 
C 72.083415 26.544818 73.182323 27 74.328 27 
L 74.328 27 
z
" clip-path="url(#p01b3f6f54a)" style="fill: none; stroke: #000000; stroke-width: 2; stroke-linejoin: miter"/>
   </g>
   <g id="line2d_1">
    <path d="M 52.008 40.68 
L 53.161264 40.643017 
L 54.309789 40.53222 
L 55.448855 40.348065 
L 56.573783 40.091308 
L 57.679948 39.763003 
L 58.762806 39.364502 
L 59.817907 38.89744 
L 60.840916 38.363737 
L 61.827628 37.765586 
L 62.77399 37.105445 
L 63.676111 36.386027 
L 64.530286 35.610288 
L 65.333004 34.781416 
L 66.080967 33.902816 
L 66.771101 32.9781 
L 67.40057 32.011066 
L 67.966788 31.005689 
L 68.467427 29.9661 
L 68.900432 28.896571 
L 69.264021 27.801497 
L 69.556702 26.685377 
L 69.777272 25.552798 
L 69.924824 24.408414 
L 69.998752 23.256928 
L 69.998752 22.103072 
L 69.924824 20.951586 
L 69.777272 19.807202 
L 69.556702 18.674623 
L 69.264021 17.558503 
L 68.900432 16.463429 
L 68.467427 15.3939 
L 67.966788 14.354311 
L 67.40057 13.348934 
L 66.771101 12.3819 
L 66.080967 11.457184 
L 65.333004 10.578584 
L 64.530286 9.749712 
L 63.676111 8.973973 
L 62.77399 8.254555 
L 61.827628 7.594414 
L 60.840916 6.996263 
L 59.817907 6.46256 
L 58.762806 5.995498 
L 57.679948 5.596997 
L 56.573783 5.268692 
L 55.448855 5.011935 
L 54.309789 4.82778 
L 53.161264 4.716983 
L 52.008 4.68 
L 52.008 4.68 
L 28.608 4.68 
L 28.608 22.68 
L 28.608 40.68 
L 52.008 40.68 
" clip-path="url(#p01b3f6f54a)" style="fill: none; stroke: #000000; stroke-width: 2; stroke-linecap: round"/>
   </g>
   <g id="line2d_2">
    <path d="M 16.008 31.68 
L 28.608 31.68 
" clip-path="url(#p01b3f6f54a)" style="fill: none; stroke: #000000; stroke-width: 2; stroke-linecap: round"/>
   </g>
   <g id="line2d_3">
    <path d="M 16.008 13.68 
L 28.608 13.68 
" clip-path="url(#p01b3f6f54a)" style="fill: none; stroke: #000000; stroke-width: 2; stroke-linecap: round"/>
   </g>
   <g id="line2d_4">
    <path d="M 78.648 22.68 
L 82.608 22.68 
" clip-path="url(#p01b3f6f54a)" style="fill: none; stroke: #000000; stroke-width: 2; stroke-linecap: round"/>
   </g>
   <g id="text_1">
    <!-- $Z$ -->
    <g transform="translate(86.208 26.543125) scale(0.14 -0.14)">
     <defs>
      <path id="DejaVuSans-Oblique-5a" d="M 838 4666 
L 4500 4666 
L 4409 4184 
L 794 531 
L 3769 531 
L 3669 0 
L -141 0 
L -50 481 
L 3566 4134 
L 738 4134 
L 838 4666 
z
" transform="scale(0.015625)"/>
     </defs>
     <use xlink:href="#DejaVuSans-Oblique-5a" transform="translate(0 0.09375)"/>
    </g>
   </g>
   <g id="text_2">
    <!-- A -->
    <g transform="translate(2.831125 17.543125) scale(0.14 -0.14)">
     <defs>
      <path id="DejaVuSans-41" d="M 2188 4044 
L 1331 1722 
L 3047 1722 
L 2188 4044 
z
M 1831 4666 
L 2547 4666 
L 4325 0 
L 3669 0 
L 3244 1197 
L 1141 1197 
L 716 0 
L 50 0 
L 1831 4666 
z
" transform="scale(0.015625)"/>
     </defs>
     <use xlink:href="#DejaVuSans-41"/>
    </g>
   </g>
   <g id="text_3">
    <!-- B -->
    <g transform="translate(2.802687 35.543125) scale(0.14 -0.14)">
     <defs>
      <path id="DejaVuSans-42" d="M 1259 2228 
L 1259 519 
L 2272 519 
Q 2781 519 3026 730 
Q 3272 941 3272 1375 
Q 3272 1813 3026 2020 
Q 2781 2228 2272 2228 
L 1259 2228 
z
M 1259 4147 
L 1259 2741 
L 2194 2741 
Q 2656 2741 2882 2914 
Q 3109 3088 3109 3444 
Q 3109 3797 2882 3972 
Q 2656 4147 2194 4147 
L 1259 4147 
z
M 628 4666 
L 2241 4666 
Q 2963 4666 3353 4366 
Q 3744 4066 3744 3513 
Q 3744 3084 3544 2831 
Q 3344 2578 2956 2516 
Q 3422 2416 3680 2098 
Q 3938 1781 3938 1306 
Q 3938 681 3513 340 
Q 3088 0 2303 0 
L 628 0 
L 628 4666 
z
" transform="scale(0.015625)"/>
     </defs>
     <use xlink:href="#DejaVuSans-42"/>
    </g>
   </g>
   <g id="text_4">
    <!-- $Z$ -->
    <g transform="translate(86.208 26.543125) scale(0.14 -0.14)">
     <use xlink:href="#DejaVuSans-Oblique-5a" transform="translate(0 0.09375)"/>
    </g>
   </g>
   <g id="text_5">
    <!-- A -->
    <g transform="translate(2.831125 17.543125) scale(0.14 -0.14)">
     <use xlink:href="#DejaVuSans-41"/>
    </g>
   </g>
   <g id="text_6">
    <!-- B -->
    <g transform="translate(2.802687 35.543125) scale(0.14 -0.14)">
     <use xlink:href="#DejaVuSans-42"/>
    </g>
   </g>
  </g>
 </g>
 <defs>
  <clipPath id="p01b3f6f54a">
   <rect x="0" y="0" width="98.686" height="45.36"/>
  </clipPath>
 </defs>
</svg>
