<?xml version="1.0" encoding="utf-8" standalone="no"?>
<!DOCTYPE svg PUBLIC "-//W3C//DTD SVG 1.1//EN"
  "http://www.w3.org/Graphics/SVG/1.1/DTD/svg11.dtd">
<svg xmlns:xlink="http://www.w3.org/1999/xlink" width="100.486pt" height="44.64pt" viewBox="0 0 100.486 44.64" xmlns="http://www.w3.org/2000/svg" version="1.1">
 <metadata>
  <rdf:RDF xmlns:dc="http://purl.org/dc/elements/1.1/" xmlns:cc="http://creativecommons.org/ns#" xmlns:rdf="http://www.w3.org/1999/02/22-rdf-syntax-ns#">
   <cc:Work>
    <dc:type rdf:resource="http://purl.org/dc/dcmitype/StillImage"/>
    <dc:date>2024-07-17T20:03:58.450599</dc:date>
    <dc:format>image/svg+xml</dc:format>
    <dc:creator>
     <cc:Agent>
      <dc:title>Matplotlib v3.9.0, https://matplotlib.org/</dc:title>
     </cc:Agent>
    </dc:creator>
   </cc:Work>
  </rdf:RDF>
 </metadata>
 <defs>
  <style type="text/css">*{stroke-linejoin: round; stroke-linecap: butt}</style>
 </defs>
 <g id="figure_1">
  <g id="patch_1">
   <path d="M 0 44.64 
L 100.486 44.64 
L 100.486 0 
L 0 0 
L 0 44.64 
z
" style="fill: none"/>
  </g>
  <g id="axes_1">
   <g id="line2d_1">
    <path d="M 28.608 39.96 
L 48.150857 39.893878 
L 50.208 39.6 
L 52.265143 39.07102 
L 54.322286 38.306939 
L 56.379429 37.307755 
L 58.436571 36.073469 
L 60.493714 34.604082 
L 62.550857 32.899592 
L 65.122286 30.438367 
L 67.693714 27.609796 
L 70.265143 24.413878 
L 71.808 22.32 
L 71.808 22.32 
L 69.236571 18.903673 
L 66.665143 15.854694 
L 64.093714 13.173061 
L 61.522286 10.858776 
L 59.465143 9.271837 
L 57.408 7.92 
L 55.350857 6.803265 
L 53.293714 5.921633 
L 51.236571 5.275102 
L 49.179429 4.863673 
L 47.122286 4.687347 
L 46.608 4.68 
L 28.608 4.68 
L 28.608 4.68 
L 30.5952 6.84 
L 32.3232 9 
L 33.792 11.16 
L 35.0016 13.32 
L 35.952 15.48 
L 36.6432 17.64 
L 37.0752 19.8 
L 37.248 21.96 
L 37.1616 24.12 
L 36.816 26.28 
L 36.2112 28.44 
L 35.3472 30.6 
L 34.224 32.76 
L 32.8416 34.92 
L 31.2 37.08 
L 29.2992 39.24 
L 28.608 39.96 
L 28.608 39.96 
" clip-path="url(#p3081171cc3)" style="fill: none; stroke: #000000; stroke-width: 2; stroke-linecap: round"/>
   </g>
   <g id="line2d_2">
    <path d="M 23.208 39.96 
L 23.8992 39.24 
L 24.5616 38.52 
L 25.1952 37.8 
L 25.8 37.08 
L 26.376 36.36 
L 26.9232 35.64 
L 27.4416 34.92 
L 27.9312 34.2 
L 28.392 33.48 
L 28.824 32.76 
L 29.2272 32.04 
L 29.6016 31.32 
L 29.9472 30.6 
L 30.264 29.88 
L 30.552 29.16 
L 30.8112 28.44 
L 31.0416 27.72 
L 31.2432 27 
L 31.416 26.28 
L 31.56 25.56 
L 31.6752 24.84 
L 31.7616 24.12 
L 31.8192 23.4 
L 31.848 22.68 
L 31.848 21.96 
L 31.8192 21.24 
L 31.7616 20.52 
L 31.6752 19.8 
L 31.56 19.08 
L 31.416 18.36 
L 31.2432 17.64 
L 31.0416 16.92 
L 30.8112 16.2 
L 30.552 15.48 
L 30.264 14.76 
L 29.9472 14.04 
L 29.6016 13.32 
L 29.2272 12.6 
L 28.824 11.88 
L 28.392 11.16 
L 27.9312 10.44 
L 27.4416 9.72 
L 26.9232 9 
L 26.376 8.28 
L 25.8 7.56 
L 25.1952 6.84 
L 24.5616 6.12 
L 23.8992 5.4 
L 23.208 4.68 
" clip-path="url(#p3081171cc3)" style="fill: none; stroke: #000000; stroke-width: 2; stroke-linecap: round"/>
   </g>
   <g id="line2d_3">
    <path d="M 16.008 31.32 
L 29.6016 31.32 
" clip-path="url(#p3081171cc3)" style="fill: none; stroke: #000000; stroke-width: 2; stroke-linecap: round"/>
   </g>
   <g id="line2d_4">
    <path d="M 16.008 13.32 
L 29.6016 13.32 
" clip-path="url(#p3081171cc3)" style="fill: none; stroke: #000000; stroke-width: 2; stroke-linecap: round"/>
   </g>
   <g id="line2d_5">
    <path d="M 71.808 22.32 
L 84.408 22.32 
" clip-path="url(#p3081171cc3)" style="fill: none; stroke: #000000; stroke-width: 2; stroke-linecap: round"/>
   </g>
   <g id="text_1">
    <!-- $Z$ -->
    <g transform="translate(88.008 26.183125) scale(0.14 -0.14)">
     <defs>
      <path id="DejaVuSans-Oblique-5a" d="M 838 4666 
L 4500 4666 
L 4409 4184 
L 794 531 
L 3769 531 
L 3669 0 
L -141 0 
L -50 481 
L 3566 4134 
L 738 4134 
L 838 4666 
z
" transform="scale(0.015625)"/>
     </defs>
     <use xlink:href="#DejaVuSans-Oblique-5a" transform="translate(0 0.09375)"/>
    </g>
   </g>
   <g id="text_2">
    <!-- A -->
    <g transform="translate(2.831125 17.183125) scale(0.14 -0.14)">
     <defs>
      <path id="DejaVuSans-41" d="M 2188 4044 
L 1331 1722 
L 3047 1722 
L 2188 4044 
z
M 1831 4666 
L 2547 4666 
L 4325 0 
L 3669 0 
L 3244 1197 
L 1141 1197 
L 716 0 
L 50 0 
L 1831 4666 
z
" transform="scale(0.015625)"/>
     </defs>
     <use xlink:href="#DejaVuSans-41"/>
    </g>
   </g>
   <g id="text_3">
    <!-- B -->
    <g transform="translate(2.802687 35.183125) scale(0.14 -0.14)">
     <defs>
      <path id="DejaVuSans-42" d="M 1259 2228 
L 1259 519 
L 2272 519 
Q 2781 519 3026 730 
Q 3272 941 3272 1375 
Q 3272 1813 3026 2020 
Q 2781 2228 2272 2228 
L 1259 2228 
z
M 1259 4147 
L 1259 2741 
L 2194 2741 
Q 2656 2741 2882 2914 
Q 3109 3088 3109 3444 
Q 3109 3797 2882 3972 
Q 2656 4147 2194 4147 
L 1259 4147 
z
M 628 4666 
L 2241 4666 
Q 2963 4666 3353 4366 
Q 3744 4066 3744 3513 
Q 3744 3084 3544 2831 
Q 3344 2578 2956 2516 
Q 3422 2416 3680 2098 
Q 3938 1781 3938 1306 
Q 3938 681 3513 340 
Q 3088 0 2303 0 
L 628 0 
L 628 4666 
z
" transform="scale(0.015625)"/>
     </defs>
     <use xlink:href="#DejaVuSans-42"/>
    </g>
   </g>
   <g id="text_4">
    <!-- $Z$ -->
    <g transform="translate(88.008 26.183125) scale(0.14 -0.14)">
     <use xlink:href="#DejaVuSans-Oblique-5a" transform="translate(0 0.09375)"/>
    </g>
   </g>
   <g id="text_5">
    <!-- A -->
    <g transform="translate(2.831125 17.183125) scale(0.14 -0.14)">
     <use xlink:href="#DejaVuSans-41"/>
    </g>
   </g>
   <g id="text_6">
    <!-- B -->
    <g transform="translate(2.802687 35.183125) scale(0.14 -0.14)">
     <use xlink:href="#DejaVuSans-42"/>
    </g>
   </g>
  </g>
 </g>
 <defs>
  <clipPath id="p3081171cc3">
   <rect x="0" y="0" width="100.486" height="44.64"/>
  </clipPath>
 </defs>
</svg>
