<?xml version="1.0" encoding="utf-8" standalone="no"?>
<!DOCTYPE svg PUBLIC "-//W3C//DTD SVG 1.1//EN"
  "http://www.w3.org/Graphics/SVG/1.1/DTD/svg11.dtd">
<svg xmlns:xlink="http://www.w3.org/1999/xlink" width="970.61pt" height="973.926pt" viewBox="0 0 970.61 973.926" xmlns="http://www.w3.org/2000/svg" version="1.1">
 <metadata>
  <rdf:RDF xmlns:dc="http://purl.org/dc/elements/1.1/" xmlns:cc="http://creativecommons.org/ns#" xmlns:rdf="http://www.w3.org/1999/02/22-rdf-syntax-ns#">
   <cc:Work>
    <dc:type rdf:resource="http://purl.org/dc/dcmitype/StillImage"/>
    <dc:date>2024-07-25T15:37:01.475172</dc:date>
    <dc:format>image/svg+xml</dc:format>
    <dc:creator>
     <cc:Agent>
      <dc:title>Matplotlib v3.9.0, https://matplotlib.org/</dc:title>
     </cc:Agent>
    </dc:creator>
   </cc:Work>
  </rdf:RDF>
 </metadata>
 <defs>
  <style type="text/css">*{stroke-linejoin: round; stroke-linecap: butt}</style>
 </defs>
 <g id="figure_1">
  <g id="patch_1">
   <path d="M 0 973.926 
L 970.61 973.926 
L 970.61 0 
L 0 0 
L 0 973.926 
z
" style="fill: none"/>
  </g>
  <g id="axes_1">
   <g id="patch_2">
    <path d="M 247.55 267.846 
C 252.801021 267.846 257.837681 265.759747 261.550714 262.046714 
C 265.263747 258.333681 267.35 253.297021 267.35 248.046 
C 267.35 242.794979 265.263747 237.758319 261.550714 234.045286 
C 257.837681 230.332253 252.801021 228.246 247.55 228.246 
C 242.298979 228.246 237.262319 230.332253 233.549286 234.045286 
C 229.836253 237.758319 227.75 242.794979 227.75 248.046 
C 227.75 253.297021 229.836253 258.333681 233.549286 262.046714 
C 237.262319 265.759747 242.298979 267.846 247.55 267.846 
L 247.55 267.846 
z
" clip-path="url(#ped543a7977)" style="fill: none; stroke: #000000; stroke-width: 2; stroke-linejoin: miter"/>
   </g>
   <g id="patch_3">
    <path d="M 382.61 699.846 
C 387.861021 699.846 392.897681 697.759747 396.610714 694.046714 
C 400.323747 690.333681 402.41 685.297021 402.41 680.046 
C 402.41 674.794979 400.323747 669.758319 396.610714 666.045286 
C 392.897681 662.332253 387.861021 660.246 382.61 660.246 
C 377.358979 660.246 372.322319 662.332253 368.609286 666.045286 
C 364.896253 669.758319 362.81 674.794979 362.81 680.046 
C 362.81 685.297021 364.896253 690.333681 368.609286 694.046714 
C 372.322319 697.759747 377.358979 699.846 382.61 699.846 
L 382.61 699.846 
z
" clip-path="url(#ped543a7977)" style="fill: none; stroke: #000000; stroke-width: 2; stroke-linejoin: miter"/>
   </g>
   <g id="patch_4">
    <path d="M 240.35 915.846 
C 245.601021 915.846 250.637681 913.759747 254.350714 910.046714 
C 258.063747 906.333681 260.15 901.297021 260.15 896.046 
C 260.15 890.794979 258.063747 885.758319 254.350714 882.045286 
C 250.637681 878.332253 245.601021 876.246 240.35 876.246 
C 235.098979 876.246 230.062319 878.332253 226.349286 882.045286 
C 222.636253 885.758319 220.55 890.794979 220.55 896.046 
C 220.55 901.297021 222.636253 906.333681 226.349286 910.046714 
C 230.062319 913.759747 235.098979 915.846 240.35 915.846 
L 240.35 915.846 
z
" clip-path="url(#ped543a7977)" style="fill: none; stroke: #000000; stroke-width: 2; stroke-linejoin: miter"/>
   </g>
   <g id="patch_5">
    <path d="M 382.61 159.846 
C 387.861021 159.846 392.897681 157.759747 396.610714 154.046714 
C 400.323747 150.333681 402.41 145.297021 402.41 140.046 
C 402.41 134.794979 400.323747 129.758319 396.610714 126.045286 
C 392.897681 122.332253 387.861021 120.246 382.61 120.246 
C 377.358979 120.246 372.322319 122.332253 368.609286 126.045286 
C 364.896253 129.758319 362.81 134.794979 362.81 140.046 
C 362.81 145.297021 364.896253 150.333681 368.609286 154.046714 
C 372.322319 157.759747 377.358979 159.846 382.61 159.846 
L 382.61 159.846 
z
" clip-path="url(#ped543a7977)" style="fill: none; stroke: #000000; stroke-width: 2; stroke-linejoin: miter"/>
   </g>
   <g id="patch_6">
    <path d="M 382.61 400.926 
C 387.861021 400.926 392.897681 398.839747 396.610714 395.126714 
C 400.323747 391.413681 402.41 386.377021 402.41 381.126 
C 402.41 375.874979 400.323747 370.838319 396.610714 367.125286 
C 392.897681 363.412253 387.861021 361.326 382.61 361.326 
C 377.358979 361.326 372.322319 363.412253 368.609286 367.125286 
C 364.896253 370.838319 362.81 375.874979 362.81 381.126 
C 362.81 386.377021 364.896253 391.413681 368.609286 395.126714 
C 372.322319 398.839747 377.358979 400.926 382.61 400.926 
L 382.61 400.926 
z
" clip-path="url(#ped543a7977)" style="fill: none; stroke: #000000; stroke-width: 2; stroke-linejoin: miter"/>
   </g>
   <g id="patch_7">
    <path d="M 382.61 807.846 
C 387.861021 807.846 392.897681 805.759747 396.610714 802.046714 
C 400.323747 798.333681 402.41 793.297021 402.41 788.046 
C 402.41 782.794979 400.323747 777.758319 396.610714 774.045286 
C 392.897681 770.332253 387.861021 768.246 382.61 768.246 
C 377.358979 768.246 372.322319 770.332253 368.609286 774.045286 
C 364.896253 777.758319 362.81 782.794979 362.81 788.046 
C 362.81 793.297021 364.896253 798.333681 368.609286 802.046714 
C 372.322319 805.759747 377.358979 807.846 382.61 807.846 
L 382.61 807.846 
z
" clip-path="url(#ped543a7977)" style="fill: none; stroke: #000000; stroke-width: 2; stroke-linejoin: miter"/>
   </g>
   <g id="patch_8">
    <path d="M 625.67 426.006 
C 630.921021 426.006 635.957681 423.919747 639.670714 420.206714 
C 643.383747 416.493681 645.47 411.457021 645.47 406.206 
C 645.47 400.954979 643.383747 395.918319 639.670714 392.205286 
C 635.957681 388.492253 630.921021 386.406 625.67 386.406 
C 620.418979 386.406 615.382319 388.492253 611.669286 392.205286 
C 607.956253 395.918319 605.87 400.954979 605.87 406.206 
C 605.87 411.457021 607.956253 416.493681 611.669286 420.206714 
C 615.382319 423.919747 620.418979 426.006 625.67 426.006 
L 625.67 426.006 
z
" clip-path="url(#ped543a7977)" style="fill: none; stroke: #000000; stroke-width: 2; stroke-linejoin: miter"/>
   </g>
   <g id="patch_9">
    <path d="M 625.67 832.926 
C 630.921021 832.926 635.957681 830.839747 639.670714 827.126714 
C 643.383747 823.413681 645.47 818.377021 645.47 813.126 
C 645.47 807.874979 643.383747 802.838319 639.670714 799.125286 
C 635.957681 795.412253 630.921021 793.326 625.67 793.326 
C 620.418979 793.326 615.382319 795.412253 611.669286 799.125286 
C 607.956253 802.838319 605.87 807.874979 605.87 813.126 
C 605.87 818.377021 607.956253 823.413681 611.669286 827.126714 
C 615.382319 830.839747 620.418979 832.926 625.67 832.926 
L 625.67 832.926 
z
" clip-path="url(#ped543a7977)" style="fill: none; stroke: #000000; stroke-width: 2; stroke-linejoin: miter"/>
   </g>
   <g id="patch_10">
    <path d="M 896.63 829.206 
L 909.23 838.206 
L 896.63 847.206 
L 896.63 829.206 
z
" clip-path="url(#ped543a7977)" style="fill: none; stroke: #000000; stroke-width: 2; stroke-linecap: round"/>
   </g>
   <g id="line2d_1">
    <path d="M 11.75 32.046 
L 11.75 17.646 
" clip-path="url(#ped543a7977)" style="fill: none; stroke: #000000; stroke-width: 2; stroke-linecap: round"/>
   </g>
   <g id="line2d_2">
    <path d="M 11.75 17.646 
L 5 17.646 
" clip-path="url(#ped543a7977)" style="fill: none; stroke: #000000; stroke-width: 2; stroke-linecap: round"/>
   </g>
   <g id="line2d_3">
    <path d="M 11.75 17.646 
L 18.5 17.646 
" clip-path="url(#ped543a7977)" style="fill: none; stroke: #000000; stroke-width: 2; stroke-linecap: round"/>
   </g>
   <g id="line2d_4">
    <path d="M 11.75 32.046 
L 65.75 32.046 
L 119.75 32.046 
" clip-path="url(#ped543a7977)" style="fill: none; stroke: #000000; stroke-width: 2; stroke-linecap: round"/>
   </g>
   <g id="line2d_5">
    <path d="M 11.75 32.046 
L 11.75 86.046 
L 11.75 140.046 
" clip-path="url(#ped543a7977)" style="fill: none; stroke: #000000; stroke-width: 2; stroke-linecap: round"/>
   </g>
   <g id="line2d_6">
    <path d="M 11.75 140.046 
L 65.75 140.046 
L 119.75 140.046 
" clip-path="url(#ped543a7977)" style="fill: none; stroke: #000000; stroke-width: 2; stroke-linecap: round"/>
   </g>
   <g id="line2d_7">
    <path d="M 119.75 140.046 
L 155.75 140.046 
L 155.75 131.046 
L 191.75 131.046 
L 191.75 149.046 
L 155.75 149.046 
L 155.75 140.046 
M 191.75 140.046 
L 227.75 140.046 
" clip-path="url(#ped543a7977)" style="fill: none; stroke: #000000; stroke-width: 2; stroke-linecap: round"/>
   </g>
   <g id="line2d_8">
    <path d="M 227.75 140.046 
L 241.28 140.046 
L 254.81 140.046 
" clip-path="url(#ped543a7977)" style="fill: none; stroke: #000000; stroke-width: 2; stroke-linecap: round"/>
   </g>
   <g id="line2d_9">
    <path d="M 11.75 140.046 
L 11.75 194.046 
L 11.75 248.046 
" clip-path="url(#ped543a7977)" style="fill: none; stroke: #000000; stroke-width: 2; stroke-linecap: round"/>
   </g>
   <g id="line2d_10">
    <path d="M 11.75 248.046 
L 47.75 248.046 
M 56.39 244.446 
L 76.55 231.846 
M 83.75 248.046 
L 119.75 248.046 
" clip-path="url(#ped543a7977)" style="fill: none; stroke: #000000; stroke-width: 2; stroke-linecap: round"/>
   </g>
   <g id="line2d_11">
    <path d="M 119.75 248.046 
L 155.75 248.046 
L 155.75 239.046 
L 191.75 239.046 
L 191.75 257.046 
L 155.75 257.046 
L 155.75 248.046 
M 191.75 248.046 
L 227.75 248.046 
" clip-path="url(#ped543a7977)" style="fill: none; stroke: #000000; stroke-width: 2; stroke-linecap: round"/>
   </g>
   <g id="line2d_12">
    <path d="M 227.75 248.046 
L 240.95 248.046 
" clip-path="url(#ped543a7977)" style="fill: none; stroke: #000000; stroke-width: 2; stroke-linecap: round"/>
   </g>
   <g id="line2d_13">
    <path d="M 240.95 234.846 
L 240.95 261.246 
" clip-path="url(#ped543a7977)" style="fill: none; stroke: #000000; stroke-width: 2; stroke-linecap: round"/>
   </g>
   <g id="line2d_14">
    <path d="M 240.95 241.446 
L 254.81 229.566 
L 254.81 222.966 
" clip-path="url(#ped543a7977)" style="fill: none; stroke: #000000; stroke-width: 2; stroke-linecap: round"/>
   </g>
   <g id="line2d_15">
    <path d="M 240.95 254.646 
L 254.81 266.526 
L 254.81 273.126 
" clip-path="url(#ped543a7977)" style="fill: none; stroke: #000000; stroke-width: 2; stroke-linecap: round"/>
   </g>
   <g id="line2d_16">
    <path d="M 240.95 254.646 
L 247.976691 260.668878 
" clip-path="url(#ped543a7977)" style="fill: none; stroke: #000000; stroke-width: 2; stroke-linecap: round"/>
   </g>
   <g id="patch_11">
    <path d="M 250.31954 257.935554 
L 254.81 266.526 
L 245.633842 263.402201 
z
" clip-path="url(#ped543a7977)"/>
   </g>
   <g id="line2d_17">
    <path d="M 254.81 273.126 
L 254.81 287.526 
L 245.81 287.526 
L 263.81 287.526 
M 248.51 291.846 
L 261.11 291.846 
M 253.01 296.166 
L 256.61 296.166 
" clip-path="url(#ped543a7977)" style="fill: none; stroke: #000000; stroke-width: 2; stroke-linecap: round"/>
   </g>
   <g id="line2d_18">
    <path d="M 254.81 222.966 
L 254.81 181.506 
L 254.81 140.046 
" clip-path="url(#ped543a7977)" style="fill: none; stroke: #000000; stroke-width: 2; stroke-linecap: round"/>
   </g>
   <g id="line2d_19">
    <path d="M 11.75 248.046 
L 11.75 302.046 
L 11.75 356.046 
" clip-path="url(#ped543a7977)" style="fill: none; stroke: #000000; stroke-width: 2; stroke-linecap: round"/>
   </g>
   <g id="line2d_20">
    <path d="M 11.75 356.046 
L 11.75 410.046 
L 11.75 464.046 
" clip-path="url(#ped543a7977)" style="fill: none; stroke: #000000; stroke-width: 2; stroke-linecap: round"/>
   </g>
   <g id="line2d_21">
    <path d="M 11.75 464.046 
L 11.75 518.046 
L 11.75 572.046 
" clip-path="url(#ped543a7977)" style="fill: none; stroke: #000000; stroke-width: 2; stroke-linecap: round"/>
   </g>
   <g id="line2d_22">
    <path d="M 11.75 572.046 
L 11.75 626.046 
L 11.75 680.046 
" clip-path="url(#ped543a7977)" style="fill: none; stroke: #000000; stroke-width: 2; stroke-linecap: round"/>
   </g>
   <g id="line2d_23">
    <path d="M 11.75 788.046 
L 65.75 788.046 
L 119.75 788.046 
" clip-path="url(#ped543a7977)" style="fill: none; stroke: #000000; stroke-width: 2; stroke-linecap: round"/>
   </g>
   <g id="line2d_24">
    <path d="M 119.75 788.046 
L 155.75 788.046 
L 155.75 779.046 
L 191.75 779.046 
L 191.75 797.046 
L 155.75 797.046 
L 155.75 788.046 
M 191.75 788.046 
L 227.75 788.046 
" clip-path="url(#ped543a7977)" style="fill: none; stroke: #000000; stroke-width: 2; stroke-linecap: round"/>
   </g>
   <g id="line2d_25">
    <path d="M 11.75 680.046 
L 11.75 734.046 
L 11.75 788.046 
" clip-path="url(#ped543a7977)" style="fill: none; stroke: #000000; stroke-width: 2; stroke-linecap: round"/>
   </g>
   <g id="line2d_26">
    <path d="M 119.75 248.046 
L 119.75 464.046 
L 119.75 680.046 
" clip-path="url(#ped543a7977)" style="fill: none; stroke: #000000; stroke-width: 2; stroke-linecap: round"/>
   </g>
   <g id="line2d_27">
    <path d="M 119.75 680.046 
L 187.28 680.046 
L 254.81 680.046 
" clip-path="url(#ped543a7977)" style="fill: none; stroke: #000000; stroke-width: 2; stroke-linecap: round"/>
   </g>
   <g id="line2d_28">
    <path d="M 254.81 680.046 
L 290.81 680.046 
L 290.81 671.046 
L 326.81 671.046 
L 326.81 689.046 
L 290.81 689.046 
L 290.81 680.046 
M 326.81 680.046 
L 362.81 680.046 
" clip-path="url(#ped543a7977)" style="fill: none; stroke: #000000; stroke-width: 2; stroke-linecap: round"/>
   </g>
   <g id="line2d_29">
    <path d="M 362.81 680.046 
L 376.01 680.046 
" clip-path="url(#ped543a7977)" style="fill: none; stroke: #000000; stroke-width: 2; stroke-linecap: round"/>
   </g>
   <g id="line2d_30">
    <path d="M 376.01 666.846 
L 376.01 693.246 
" clip-path="url(#ped543a7977)" style="fill: none; stroke: #000000; stroke-width: 2; stroke-linecap: round"/>
   </g>
   <g id="line2d_31">
    <path d="M 376.01 673.446 
L 389.87 661.566 
L 389.87 654.966 
" clip-path="url(#ped543a7977)" style="fill: none; stroke: #000000; stroke-width: 2; stroke-linecap: round"/>
   </g>
   <g id="line2d_32">
    <path d="M 376.01 686.646 
L 389.87 698.526 
L 389.87 705.126 
" clip-path="url(#ped543a7977)" style="fill: none; stroke: #000000; stroke-width: 2; stroke-linecap: round"/>
   </g>
   <g id="line2d_33">
    <path d="M 376.01 686.646 
L 383.036691 692.668878 
" clip-path="url(#ped543a7977)" style="fill: none; stroke: #000000; stroke-width: 2; stroke-linecap: round"/>
   </g>
   <g id="patch_12">
    <path d="M 385.37954 689.935554 
L 389.87 698.526 
L 380.693842 695.402201 
z
" clip-path="url(#ped543a7977)"/>
   </g>
   <g id="line2d_34">
    <path d="M 11.75 572.046 
L 200.81 572.046 
L 389.87 572.046 
" clip-path="url(#ped543a7977)" style="fill: none; stroke: #000000; stroke-width: 2; stroke-linecap: round"/>
   </g>
   <g id="line2d_35">
    <path d="M 389.87 654.966 
L 389.87 613.506 
L 389.87 572.046 
" clip-path="url(#ped543a7977)" style="fill: none; stroke: #000000; stroke-width: 2; stroke-linecap: round"/>
   </g>
   <g id="line2d_36">
    <path d="M 11.75 788.046 
L 11.75 842.046 
L 11.75 896.046 
" clip-path="url(#ped543a7977)" style="fill: none; stroke: #000000; stroke-width: 2; stroke-linecap: round"/>
   </g>
   <g id="line2d_37">
    <path d="M 11.75 896.046 
L 44.15 896.046 
M 52.79 892.446 
L 72.95 879.846 
M 80.15 896.046 
L 112.55 896.046 
" clip-path="url(#ped543a7977)" style="fill: none; stroke: #000000; stroke-width: 2; stroke-linecap: round"/>
   </g>
   <g id="line2d_38">
    <path d="M 112.55 896.046 
L 148.55 896.046 
L 148.55 887.046 
L 184.55 887.046 
L 184.55 905.046 
L 148.55 905.046 
L 148.55 896.046 
M 184.55 896.046 
L 220.55 896.046 
" clip-path="url(#ped543a7977)" style="fill: none; stroke: #000000; stroke-width: 2; stroke-linecap: round"/>
   </g>
   <g id="line2d_39">
    <path d="M 220.55 896.046 
L 233.75 896.046 
" clip-path="url(#ped543a7977)" style="fill: none; stroke: #000000; stroke-width: 2; stroke-linecap: round"/>
   </g>
   <g id="line2d_40">
    <path d="M 233.75 882.846 
L 233.75 909.246 
" clip-path="url(#ped543a7977)" style="fill: none; stroke: #000000; stroke-width: 2; stroke-linecap: round"/>
   </g>
   <g id="line2d_41">
    <path d="M 233.75 889.446 
L 247.61 877.566 
L 247.61 870.966 
" clip-path="url(#ped543a7977)" style="fill: none; stroke: #000000; stroke-width: 2; stroke-linecap: round"/>
   </g>
   <g id="line2d_42">
    <path d="M 233.75 902.646 
L 247.61 914.526 
L 247.61 921.126 
" clip-path="url(#ped543a7977)" style="fill: none; stroke: #000000; stroke-width: 2; stroke-linecap: round"/>
   </g>
   <g id="line2d_43">
    <path d="M 233.75 902.646 
L 240.776691 908.668878 
" clip-path="url(#ped543a7977)" style="fill: none; stroke: #000000; stroke-width: 2; stroke-linecap: round"/>
   </g>
   <g id="patch_13">
    <path d="M 243.11954 905.935554 
L 247.61 914.526 
L 238.433842 911.402201 
z
" clip-path="url(#ped543a7977)"/>
   </g>
   <g id="line2d_44">
    <path d="M 247.61 921.126 
L 247.61 935.526 
L 238.61 935.526 
L 256.61 935.526 
M 241.31 939.846 
L 253.91 939.846 
M 245.81 944.166 
L 249.41 944.166 
" clip-path="url(#ped543a7977)" style="fill: none; stroke: #000000; stroke-width: 2; stroke-linecap: round"/>
   </g>
   <g id="line2d_45">
    <path d="M 227.75 788.046 
L 237.68 788.046 
L 247.61 788.046 
" clip-path="url(#ped543a7977)" style="fill: none; stroke: #000000; stroke-width: 2; stroke-linecap: round"/>
   </g>
   <g id="line2d_46">
    <path d="M 247.61 870.966 
L 247.61 829.506 
L 247.61 788.046 
" clip-path="url(#ped543a7977)" style="fill: none; stroke: #000000; stroke-width: 2; stroke-linecap: round"/>
   </g>
   <g id="line2d_47">
    <path d="M 254.81 140.046 
L 290.81 140.046 
L 290.81 131.046 
L 326.81 131.046 
L 326.81 149.046 
L 290.81 149.046 
L 290.81 140.046 
M 326.81 140.046 
L 362.81 140.046 
" clip-path="url(#ped543a7977)" style="fill: none; stroke: #000000; stroke-width: 2; stroke-linecap: round"/>
   </g>
   <g id="line2d_48">
    <path d="M 362.81 140.046 
L 376.01 140.046 
" clip-path="url(#ped543a7977)" style="fill: none; stroke: #000000; stroke-width: 2; stroke-linecap: round"/>
   </g>
   <g id="line2d_49">
    <path d="M 376.01 126.846 
L 376.01 153.246 
" clip-path="url(#ped543a7977)" style="fill: none; stroke: #000000; stroke-width: 2; stroke-linecap: round"/>
   </g>
   <g id="line2d_50">
    <path d="M 376.01 133.446 
L 389.87 121.566 
L 389.87 114.966 
" clip-path="url(#ped543a7977)" style="fill: none; stroke: #000000; stroke-width: 2; stroke-linecap: round"/>
   </g>
   <g id="line2d_51">
    <path d="M 376.01 146.646 
L 389.87 158.526 
L 389.87 165.126 
" clip-path="url(#ped543a7977)" style="fill: none; stroke: #000000; stroke-width: 2; stroke-linecap: round"/>
   </g>
   <g id="line2d_52">
    <path d="M 376.01 146.646 
L 383.036691 152.668878 
" clip-path="url(#ped543a7977)" style="fill: none; stroke: #000000; stroke-width: 2; stroke-linecap: round"/>
   </g>
   <g id="patch_14">
    <path d="M 385.37954 149.935554 
L 389.87 158.526 
L 380.693842 155.402201 
z
" clip-path="url(#ped543a7977)"/>
   </g>
   <g id="line2d_53">
    <path d="M 389.87 114.966 
L 389.87 73.506 
L 389.87 32.046 
" clip-path="url(#ped543a7977)" style="fill: none; stroke: #000000; stroke-width: 2; stroke-linecap: round"/>
   </g>
   <g id="line2d_54">
    <path d="M 389.87 32.046 
L 254.81 32.046 
L 119.75 32.046 
" clip-path="url(#ped543a7977)" style="fill: none; stroke: #000000; stroke-width: 2; stroke-linecap: round"/>
   </g>
   <g id="line2d_55">
    <path d="M 389.87 165.126 
L 389.87 260.586 
L 389.87 356.046 
" clip-path="url(#ped543a7977)" style="fill: none; stroke: #000000; stroke-width: 2; stroke-linecap: round"/>
   </g>
   <g id="line2d_56">
    <path d="M 362.81 381.126 
L 376.01 381.126 
" clip-path="url(#ped543a7977)" style="fill: none; stroke: #000000; stroke-width: 2; stroke-linecap: round"/>
   </g>
   <g id="line2d_57">
    <path d="M 376.01 367.926 
L 376.01 394.326 
" clip-path="url(#ped543a7977)" style="fill: none; stroke: #000000; stroke-width: 2; stroke-linecap: round"/>
   </g>
   <g id="line2d_58">
    <path d="M 376.01 374.526 
L 389.87 362.646 
L 389.87 356.046 
" clip-path="url(#ped543a7977)" style="fill: none; stroke: #000000; stroke-width: 2; stroke-linecap: round"/>
   </g>
   <g id="line2d_59">
    <path d="M 376.01 387.726 
L 389.87 399.606 
L 389.87 406.206 
" clip-path="url(#ped543a7977)" style="fill: none; stroke: #000000; stroke-width: 2; stroke-linecap: round"/>
   </g>
   <g id="line2d_60">
    <path d="M 376.01 387.726 
L 383.036691 393.748878 
" clip-path="url(#ped543a7977)" style="fill: none; stroke: #000000; stroke-width: 2; stroke-linecap: round"/>
   </g>
   <g id="patch_15">
    <path d="M 385.37954 391.015554 
L 389.87 399.606 
L 380.693842 396.482201 
z
" clip-path="url(#ped543a7977)"/>
   </g>
   <g id="line2d_61">
    <path d="M 389.87 406.206 
L 389.87 442.206 
L 398.87 442.206 
L 398.87 478.206 
L 380.87 478.206 
L 380.87 442.206 
L 389.87 442.206 
M 389.87 478.206 
L 389.87 514.206 
" clip-path="url(#ped543a7977)" style="fill: none; stroke: #000000; stroke-width: 2; stroke-linecap: round"/>
   </g>
   <g id="line2d_62">
    <path d="M 389.87 514.206 
L 389.87 528.606 
L 380.87 528.606 
L 398.87 528.606 
M 383.57 532.926 
L 396.17 532.926 
M 388.07 537.246 
L 391.67 537.246 
" clip-path="url(#ped543a7977)" style="fill: none; stroke: #000000; stroke-width: 2; stroke-linecap: round"/>
   </g>
   <g id="line2d_63">
    <path d="M 389.87 406.206 
L 443.87 406.206 
L 497.87 406.206 
" clip-path="url(#ped543a7977)" style="fill: none; stroke: #000000; stroke-width: 2; stroke-linecap: round"/>
   </g>
   <g id="line2d_64">
    <path d="M 362.81 381.126 
L 326.81 381.126 
L 326.81 390.126 
L 290.81 390.126 
L 290.81 372.126 
L 326.81 372.126 
L 326.81 381.126 
M 290.81 381.126 
L 254.81 381.126 
" clip-path="url(#ped543a7977)" style="fill: none; stroke: #000000; stroke-width: 2; stroke-linecap: round"/>
   </g>
   <g id="line2d_65">
    <path d="M 112.55 896.046 
L 112.55 638.586 
L 112.55 381.126 
" clip-path="url(#ped543a7977)" style="fill: none; stroke: #000000; stroke-width: 2; stroke-linecap: round"/>
   </g>
   <g id="line2d_66">
    <path d="M 112.55 381.126 
L 183.68 381.126 
L 254.81 381.126 
" clip-path="url(#ped543a7977)" style="fill: none; stroke: #000000; stroke-width: 2; stroke-linecap: round"/>
   </g>
   <g id="line2d_67">
    <path d="M 247.61 788.046 
L 287.21 788.046 
L 287.21 779.046 
L 323.21 779.046 
L 323.21 797.046 
L 287.21 797.046 
L 287.21 788.046 
M 323.21 788.046 
L 362.81 788.046 
" clip-path="url(#ped543a7977)" style="fill: none; stroke: #000000; stroke-width: 2; stroke-linecap: round"/>
   </g>
   <g id="line2d_68">
    <path d="M 362.81 788.046 
L 376.01 788.046 
" clip-path="url(#ped543a7977)" style="fill: none; stroke: #000000; stroke-width: 2; stroke-linecap: round"/>
   </g>
   <g id="line2d_69">
    <path d="M 376.01 774.846 
L 376.01 801.246 
" clip-path="url(#ped543a7977)" style="fill: none; stroke: #000000; stroke-width: 2; stroke-linecap: round"/>
   </g>
   <g id="line2d_70">
    <path d="M 376.01 781.446 
L 389.87 769.566 
L 389.87 762.966 
" clip-path="url(#ped543a7977)" style="fill: none; stroke: #000000; stroke-width: 2; stroke-linecap: round"/>
   </g>
   <g id="line2d_71">
    <path d="M 376.01 794.646 
L 389.87 806.526 
L 389.87 813.126 
" clip-path="url(#ped543a7977)" style="fill: none; stroke: #000000; stroke-width: 2; stroke-linecap: round"/>
   </g>
   <g id="line2d_72">
    <path d="M 376.01 794.646 
L 383.036691 800.668878 
" clip-path="url(#ped543a7977)" style="fill: none; stroke: #000000; stroke-width: 2; stroke-linecap: round"/>
   </g>
   <g id="patch_16">
    <path d="M 385.37954 797.935554 
L 389.87 806.526 
L 380.693842 803.402201 
z
" clip-path="url(#ped543a7977)"/>
   </g>
   <g id="line2d_73">
    <path d="M 389.87 813.126 
L 389.87 849.126 
L 398.87 849.126 
L 398.87 885.126 
L 380.87 885.126 
L 380.87 849.126 
L 389.87 849.126 
M 389.87 885.126 
L 389.87 921.126 
" clip-path="url(#ped543a7977)" style="fill: none; stroke: #000000; stroke-width: 2; stroke-linecap: round"/>
   </g>
   <g id="line2d_74">
    <path d="M 389.87 921.126 
L 389.87 935.526 
L 380.87 935.526 
L 398.87 935.526 
M 383.57 939.846 
L 396.17 939.846 
M 388.07 944.166 
L 391.67 944.166 
" clip-path="url(#ped543a7977)" style="fill: none; stroke: #000000; stroke-width: 2; stroke-linecap: round"/>
   </g>
   <g id="line2d_75">
    <path d="M 389.87 813.126 
L 443.87 813.126 
L 497.87 813.126 
" clip-path="url(#ped543a7977)" style="fill: none; stroke: #000000; stroke-width: 2; stroke-linecap: round"/>
   </g>
   <g id="line2d_76">
    <path d="M 389.87 705.126 
L 389.87 734.046 
L 389.87 762.966 
" clip-path="url(#ped543a7977)" style="fill: none; stroke: #000000; stroke-width: 2; stroke-linecap: round"/>
   </g>
   <g id="line2d_77">
    <path d="M 497.87 406.206 
L 533.87 406.206 
L 533.87 397.206 
L 569.87 397.206 
L 569.87 415.206 
L 533.87 415.206 
L 533.87 406.206 
M 569.87 406.206 
L 605.87 406.206 
" clip-path="url(#ped543a7977)" style="fill: none; stroke: #000000; stroke-width: 2; stroke-linecap: round"/>
   </g>
   <g id="line2d_78">
    <path d="M 605.87 406.206 
L 619.07 406.206 
" clip-path="url(#ped543a7977)" style="fill: none; stroke: #000000; stroke-width: 2; stroke-linecap: round"/>
   </g>
   <g id="line2d_79">
    <path d="M 619.07 393.006 
L 619.07 419.406 
" clip-path="url(#ped543a7977)" style="fill: none; stroke: #000000; stroke-width: 2; stroke-linecap: round"/>
   </g>
   <g id="line2d_80">
    <path d="M 619.07 399.606 
L 632.93 387.726 
L 632.93 381.126 
" clip-path="url(#ped543a7977)" style="fill: none; stroke: #000000; stroke-width: 2; stroke-linecap: round"/>
   </g>
   <g id="line2d_81">
    <path d="M 619.07 412.806 
L 632.93 424.686 
L 632.93 431.286 
" clip-path="url(#ped543a7977)" style="fill: none; stroke: #000000; stroke-width: 2; stroke-linecap: round"/>
   </g>
   <g id="line2d_82">
    <path d="M 619.07 412.806 
L 626.096691 418.828878 
" clip-path="url(#ped543a7977)" style="fill: none; stroke: #000000; stroke-width: 2; stroke-linecap: round"/>
   </g>
   <g id="patch_17">
    <path d="M 628.43954 416.095554 
L 632.93 424.686 
L 623.753842 421.562201 
z
" clip-path="url(#ped543a7977)"/>
   </g>
   <g id="line2d_83">
    <path d="M 632.93 381.126 
L 632.93 206.586 
L 632.93 32.046 
" clip-path="url(#ped543a7977)" style="fill: none; stroke: #000000; stroke-width: 2; stroke-linecap: round"/>
   </g>
   <g id="line2d_84">
    <path d="M 632.93 32.046 
L 511.4 32.046 
L 389.87 32.046 
" clip-path="url(#ped543a7977)" style="fill: none; stroke: #000000; stroke-width: 2; stroke-linecap: round"/>
   </g>
   <g id="line2d_85">
    <path d="M 497.87 813.126 
L 533.87 813.126 
L 533.87 804.126 
L 569.87 804.126 
L 569.87 822.126 
L 533.87 822.126 
L 533.87 813.126 
M 569.87 813.126 
L 605.87 813.126 
" clip-path="url(#ped543a7977)" style="fill: none; stroke: #000000; stroke-width: 2; stroke-linecap: round"/>
   </g>
   <g id="line2d_86">
    <path d="M 605.87 813.126 
L 619.07 813.126 
" clip-path="url(#ped543a7977)" style="fill: none; stroke: #000000; stroke-width: 2; stroke-linecap: round"/>
   </g>
   <g id="line2d_87">
    <path d="M 619.07 799.926 
L 619.07 826.326 
" clip-path="url(#ped543a7977)" style="fill: none; stroke: #000000; stroke-width: 2; stroke-linecap: round"/>
   </g>
   <g id="line2d_88">
    <path d="M 619.07 806.526 
L 632.93 794.646 
L 632.93 788.046 
" clip-path="url(#ped543a7977)" style="fill: none; stroke: #000000; stroke-width: 2; stroke-linecap: round"/>
   </g>
   <g id="line2d_89">
    <path d="M 619.07 819.726 
L 632.93 831.606 
L 632.93 838.206 
" clip-path="url(#ped543a7977)" style="fill: none; stroke: #000000; stroke-width: 2; stroke-linecap: round"/>
   </g>
   <g id="line2d_90">
    <path d="M 619.07 819.726 
L 626.096691 825.748878 
" clip-path="url(#ped543a7977)" style="fill: none; stroke: #000000; stroke-width: 2; stroke-linecap: round"/>
   </g>
   <g id="patch_18">
    <path d="M 628.43954 823.015554 
L 632.93 831.606 
L 623.753842 828.482201 
z
" clip-path="url(#ped543a7977)"/>
   </g>
   <g id="line2d_91">
    <path d="M 632.93 788.046 
L 632.93 680.046 
L 632.93 572.046 
" clip-path="url(#ped543a7977)" style="fill: none; stroke: #000000; stroke-width: 2; stroke-linecap: round"/>
   </g>
   <g id="line2d_92">
    <path d="M 632.93 572.046 
L 322.34 572.046 
L 11.75 572.046 
" clip-path="url(#ped543a7977)" style="fill: none; stroke: #000000; stroke-width: 2; stroke-linecap: round"/>
   </g>
   <g id="line2d_93">
    <path d="M 632.93 431.286 
L 686.93 431.286 
L 740.93 431.286 
" clip-path="url(#ped543a7977)" style="fill: none; stroke: #000000; stroke-width: 2; stroke-linecap: round"/>
   </g>
   <g id="line2d_94">
    <path d="M 632.93 838.206 
L 686.93 838.206 
L 740.93 838.206 
" clip-path="url(#ped543a7977)" style="fill: none; stroke: #000000; stroke-width: 2; stroke-linecap: round"/>
   </g>
   <g id="line2d_95">
    <path d="M 632.93 838.206 
L 632.93 874.206 
L 641.93 874.206 
L 641.93 910.206 
L 623.93 910.206 
L 623.93 874.206 
L 632.93 874.206 
M 632.93 910.206 
L 632.93 946.206 
" clip-path="url(#ped543a7977)" style="fill: none; stroke: #000000; stroke-width: 2; stroke-linecap: round"/>
   </g>
   <g id="line2d_96">
    <path d="M 632.93 946.206 
L 632.93 960.606 
L 623.93 960.606 
L 641.93 960.606 
M 626.63 964.926 
L 639.23 964.926 
M 631.13 969.246 
L 634.73 969.246 
" clip-path="url(#ped543a7977)" style="fill: none; stroke: #000000; stroke-width: 2; stroke-linecap: round"/>
   </g>
   <g id="line2d_97">
    <path d="M 740.93 431.286 
L 740.93 634.746 
L 740.93 838.206 
" clip-path="url(#ped543a7977)" style="fill: none; stroke: #000000; stroke-width: 2; stroke-linecap: round"/>
   </g>
   <g id="line2d_98">
    <path d="M 740.93 838.206 
L 776.93 838.206 
L 776.93 829.206 
L 812.93 829.206 
L 812.93 847.206 
L 776.93 847.206 
L 776.93 838.206 
M 812.93 838.206 
L 848.93 838.206 
" clip-path="url(#ped543a7977)" style="fill: none; stroke: #000000; stroke-width: 2; stroke-linecap: round"/>
   </g>
   <g id="line2d_99">
    <path d="M 848.93 838.206 
L 896.63 838.206 
M 909.23 829.206 
L 909.23 847.206 
M 909.23 838.206 
L 956.93 838.206 
" clip-path="url(#ped543a7977)" style="fill: none; stroke: #000000; stroke-width: 2; stroke-linecap: round"/>
   </g>
   <g id="line2d_100">
    <path d="M 905.63 824.706 
L 911.0578 815.207351 
" clip-path="url(#ped543a7977)" style="fill: none; stroke: #000000; stroke-width: 2; stroke-linecap: round"/>
   </g>
   <g id="patch_19">
    <path d="M 908.557259 813.77847 
L 914.63 808.956 
L 913.55834 816.636231 
z
" clip-path="url(#ped543a7977)"/>
   </g>
   <g id="line2d_101">
    <path d="M 897.53 824.706 
L 902.9578 815.207351 
" clip-path="url(#ped543a7977)" style="fill: none; stroke: #000000; stroke-width: 2; stroke-linecap: round"/>
   </g>
   <g id="patch_20">
    <path d="M 900.457259 813.77847 
L 906.53 808.956 
L 905.45834 816.636231 
z
" clip-path="url(#ped543a7977)"/>
   </g>
   <g id="line2d_102">
    <path d="M 956.93 838.206 
L 956.93 852.606 
L 947.93 852.606 
L 965.93 852.606 
M 950.63 856.926 
L 963.23 856.926 
M 955.13 861.246 
L 958.73 861.246 
" clip-path="url(#ped543a7977)" style="fill: none; stroke: #000000; stroke-width: 2; stroke-linecap: round"/>
   </g>
   <g id="text_1">
    <!-- 5V -->
    <g transform="translate(2.507812 11.134437) scale(0.14 -0.14)">
     <defs>
      <path id="DejaVuSans-35" d="M 691 4666 
L 3169 4666 
L 3169 4134 
L 1269 4134 
L 1269 2991 
Q 1406 3038 1543 3061 
Q 1681 3084 1819 3084 
Q 2600 3084 3056 2656 
Q 3513 2228 3513 1497 
Q 3513 744 3044 326 
Q 2575 -91 1722 -91 
Q 1428 -91 1123 -41 
Q 819 9 494 109 
L 494 744 
Q 775 591 1075 516 
Q 1375 441 1709 441 
Q 2250 441 2565 725 
Q 2881 1009 2881 1497 
Q 2881 1984 2565 2268 
Q 2250 2553 1709 2553 
Q 1456 2553 1204 2497 
Q 953 2441 691 2322 
L 691 4666 
z
" transform="scale(0.015625)"/>
      <path id="DejaVuSans-56" d="M 1831 0 
L 50 4666 
L 709 4666 
L 2188 738 
L 3669 4666 
L 4325 4666 
L 2547 0 
L 1831 0 
z
" transform="scale(0.015625)"/>
     </defs>
     <use xlink:href="#DejaVuSans-35"/>
     <use xlink:href="#DejaVuSans-56" x="63.623047"/>
    </g>
   </g>
   <g id="text_2">
    <!-- 1kΩ -->
    <g transform="translate(159.893281 124.534437) scale(0.14 -0.14)">
     <defs>
      <path id="DejaVuSans-31" d="M 794 531 
L 1825 531 
L 1825 4091 
L 703 3866 
L 703 4441 
L 1819 4666 
L 2450 4666 
L 2450 531 
L 3481 531 
L 3481 0 
L 794 0 
L 794 531 
z
" transform="scale(0.015625)"/>
      <path id="DejaVuSans-6b" d="M 581 4863 
L 1159 4863 
L 1159 1991 
L 2875 3500 
L 3609 3500 
L 1753 1863 
L 3688 0 
L 2938 0 
L 1159 1709 
L 1159 0 
L 581 0 
L 581 4863 
z
" transform="scale(0.015625)"/>
      <path id="DejaVuSans-3a9" d="M 4647 556 
L 4647 0 
L 2772 0 
L 2772 556 
Q 3325 859 3634 1378 
Q 3944 1897 3944 2528 
Q 3944 3278 3531 3731 
Q 3119 4184 2444 4184 
Q 1769 4184 1355 3729 
Q 941 3275 941 2528 
Q 941 1897 1250 1378 
Q 1563 859 2119 556 
L 2119 0 
L 244 0 
L 244 556 
L 1241 556 
Q 747 991 519 1456 
Q 294 1922 294 2497 
Q 294 3491 894 4106 
Q 1491 4722 2444 4722 
Q 3391 4722 3994 4106 
Q 4594 3494 4594 2528 
Q 4594 1922 4372 1459 
Q 4150 997 3647 556 
L 4647 556 
z
" transform="scale(0.015625)"/>
     </defs>
     <use xlink:href="#DejaVuSans-31"/>
     <use xlink:href="#DejaVuSans-6b" x="63.623047"/>
     <use xlink:href="#DejaVuSans-3a9" x="121.533203"/>
    </g>
   </g>
   <g id="patch_21">
    <path d="M 52.07 252.366 
C 53.215677 252.366 54.314585 251.910818 55.124701 251.100701 
C 55.934818 250.290585 56.39 249.191677 56.39 248.046 
C 56.39 246.900323 55.934818 245.801415 55.124701 244.991299 
C 54.314585 244.181182 53.215677 243.726 52.07 243.726 
C 50.924323 243.726 49.825415 244.181182 49.015299 244.991299 
C 48.205182 245.801415 47.75 246.900323 47.75 248.046 
C 47.75 249.191677 48.205182 250.290585 49.015299 251.100701 
C 49.825415 251.910818 50.924323 252.366 52.07 252.366 
z
" clip-path="url(#ped543a7977)" style="fill: #ffffff; stroke: #000000; stroke-width: 2; stroke-linejoin: miter"/>
   </g>
   <g id="patch_22">
    <path d="M 79.43 252.366 
C 80.575677 252.366 81.674585 251.910818 82.484701 251.100701 
C 83.294818 250.290585 83.75 249.191677 83.75 248.046 
C 83.75 246.900323 83.294818 245.801415 82.484701 244.991299 
C 81.674585 244.181182 80.575677 243.726 79.43 243.726 
C 78.284323 243.726 77.185415 244.181182 76.375299 244.991299 
C 75.565182 245.801415 75.11 246.900323 75.11 248.046 
C 75.11 249.191677 75.565182 250.290585 76.375299 251.100701 
C 77.185415 251.910818 78.284323 252.366 79.43 252.366 
z
" clip-path="url(#ped543a7977)" style="fill: #ffffff; stroke: #000000; stroke-width: 2; stroke-linejoin: miter"/>
   </g>
   <g id="text_3">
    <!-- A -->
    <g transform="translate(60.961562 225.334437) scale(0.14 -0.14)">
     <defs>
      <path id="DejaVuSans-41" d="M 2188 4044 
L 1331 1722 
L 3047 1722 
L 2188 4044 
z
M 1831 4666 
L 2547 4666 
L 4325 0 
L 3669 0 
L 3244 1197 
L 1141 1197 
L 716 0 
L 50 0 
L 1831 4666 
z
" transform="scale(0.015625)"/>
     </defs>
     <use xlink:href="#DejaVuSans-41"/>
    </g>
   </g>
   <g id="text_4">
    <!-- 1kΩ -->
    <g transform="translate(159.893281 232.534437) scale(0.14 -0.14)">
     <use xlink:href="#DejaVuSans-31"/>
     <use xlink:href="#DejaVuSans-6b" x="63.623047"/>
     <use xlink:href="#DejaVuSans-3a9" x="121.533203"/>
    </g>
   </g>
   <g id="text_5">
    <!-- 2N2222 -->
    <g transform="translate(270.95 252.209125) scale(0.14 -0.14)">
     <defs>
      <path id="DejaVuSans-32" d="M 1228 531 
L 3431 531 
L 3431 0 
L 469 0 
L 469 531 
Q 828 903 1448 1529 
Q 2069 2156 2228 2338 
Q 2531 2678 2651 2914 
Q 2772 3150 2772 3378 
Q 2772 3750 2511 3984 
Q 2250 4219 1831 4219 
Q 1534 4219 1204 4116 
Q 875 4013 500 3803 
L 500 4441 
Q 881 4594 1212 4672 
Q 1544 4750 1819 4750 
Q 2544 4750 2975 4387 
Q 3406 4025 3406 3419 
Q 3406 3131 3298 2873 
Q 3191 2616 2906 2266 
Q 2828 2175 2409 1742 
Q 1991 1309 1228 531 
z
" transform="scale(0.015625)"/>
      <path id="DejaVuSans-4e" d="M 628 4666 
L 1478 4666 
L 3547 763 
L 3547 4666 
L 4159 4666 
L 4159 0 
L 3309 0 
L 1241 3903 
L 1241 0 
L 628 0 
L 628 4666 
z
" transform="scale(0.015625)"/>
     </defs>
     <use xlink:href="#DejaVuSans-32"/>
     <use xlink:href="#DejaVuSans-4e" x="63.623047"/>
     <use xlink:href="#DejaVuSans-32" x="138.427734"/>
     <use xlink:href="#DejaVuSans-32" x="202.050781"/>
     <use xlink:href="#DejaVuSans-32" x="265.673828"/>
     <use xlink:href="#DejaVuSans-32" x="329.296875"/>
    </g>
   </g>
   <g id="text_6">
    <!-- 1kΩ -->
    <g transform="translate(159.893281 772.534437) scale(0.14 -0.14)">
     <use xlink:href="#DejaVuSans-31"/>
     <use xlink:href="#DejaVuSans-6b" x="63.623047"/>
     <use xlink:href="#DejaVuSans-3a9" x="121.533203"/>
    </g>
   </g>
   <g id="text_7">
    <!-- 2.2kΩ -->
    <g transform="translate(288.274844 664.534437) scale(0.14 -0.14)">
     <defs>
      <path id="DejaVuSans-2e" d="M 684 794 
L 1344 794 
L 1344 0 
L 684 0 
L 684 794 
z
" transform="scale(0.015625)"/>
     </defs>
     <use xlink:href="#DejaVuSans-32"/>
     <use xlink:href="#DejaVuSans-2e" x="63.623047"/>
     <use xlink:href="#DejaVuSans-32" x="95.410156"/>
     <use xlink:href="#DejaVuSans-6b" x="159.033203"/>
     <use xlink:href="#DejaVuSans-3a9" x="216.943359"/>
    </g>
   </g>
   <g id="text_8">
    <!-- 2N2222 -->
    <g transform="translate(406.01 684.209125) scale(0.14 -0.14)">
     <use xlink:href="#DejaVuSans-32"/>
     <use xlink:href="#DejaVuSans-4e" x="63.623047"/>
     <use xlink:href="#DejaVuSans-32" x="138.427734"/>
     <use xlink:href="#DejaVuSans-32" x="202.050781"/>
     <use xlink:href="#DejaVuSans-32" x="265.673828"/>
     <use xlink:href="#DejaVuSans-32" x="329.296875"/>
    </g>
   </g>
   <g id="patch_23">
    <path d="M 48.47 900.366 
C 49.615677 900.366 50.714585 899.910818 51.524701 899.100701 
C 52.334818 898.290585 52.79 897.191677 52.79 896.046 
C 52.79 894.900323 52.334818 893.801415 51.524701 892.991299 
C 50.714585 892.181182 49.615677 891.726 48.47 891.726 
C 47.324323 891.726 46.225415 892.181182 45.415299 892.991299 
C 44.605182 893.801415 44.15 894.900323 44.15 896.046 
C 44.15 897.191677 44.605182 898.290585 45.415299 899.100701 
C 46.225415 899.910818 47.324323 900.366 48.47 900.366 
z
" clip-path="url(#ped543a7977)" style="fill: #ffffff; stroke: #000000; stroke-width: 2; stroke-linejoin: miter"/>
   </g>
   <g id="patch_24">
    <path d="M 75.83 900.366 
C 76.975677 900.366 78.074585 899.910818 78.884701 899.100701 
C 79.694818 898.290585 80.15 897.191677 80.15 896.046 
C 80.15 894.900323 79.694818 893.801415 78.884701 892.991299 
C 78.074585 892.181182 76.975677 891.726 75.83 891.726 
C 74.684323 891.726 73.585415 892.181182 72.775299 892.991299 
C 71.965182 893.801415 71.51 894.900323 71.51 896.046 
C 71.51 897.191677 71.965182 898.290585 72.775299 899.100701 
C 73.585415 899.910818 74.684323 900.366 75.83 900.366 
z
" clip-path="url(#ped543a7977)" style="fill: #ffffff; stroke: #000000; stroke-width: 2; stroke-linejoin: miter"/>
   </g>
   <g id="text_9">
    <!-- B -->
    <g transform="translate(57.347344 873.334437) scale(0.14 -0.14)">
     <defs>
      <path id="DejaVuSans-42" d="M 1259 2228 
L 1259 519 
L 2272 519 
Q 2781 519 3026 730 
Q 3272 941 3272 1375 
Q 3272 1813 3026 2020 
Q 2781 2228 2272 2228 
L 1259 2228 
z
M 1259 4147 
L 1259 2741 
L 2194 2741 
Q 2656 2741 2882 2914 
Q 3109 3088 3109 3444 
Q 3109 3797 2882 3972 
Q 2656 4147 2194 4147 
L 1259 4147 
z
M 628 4666 
L 2241 4666 
Q 2963 4666 3353 4366 
Q 3744 4066 3744 3513 
Q 3744 3084 3544 2831 
Q 3344 2578 2956 2516 
Q 3422 2416 3680 2098 
Q 3938 1781 3938 1306 
Q 3938 681 3513 340 
Q 3088 0 2303 0 
L 628 0 
L 628 4666 
z
" transform="scale(0.015625)"/>
     </defs>
     <use xlink:href="#DejaVuSans-42"/>
    </g>
   </g>
   <g id="text_10">
    <!-- 1kΩ -->
    <g transform="translate(152.693281 880.534437) scale(0.14 -0.14)">
     <use xlink:href="#DejaVuSans-31"/>
     <use xlink:href="#DejaVuSans-6b" x="63.623047"/>
     <use xlink:href="#DejaVuSans-3a9" x="121.533203"/>
    </g>
   </g>
   <g id="text_11">
    <!-- 2N2222 -->
    <g transform="translate(263.75 900.209125) scale(0.14 -0.14)">
     <use xlink:href="#DejaVuSans-32"/>
     <use xlink:href="#DejaVuSans-4e" x="63.623047"/>
     <use xlink:href="#DejaVuSans-32" x="138.427734"/>
     <use xlink:href="#DejaVuSans-32" x="202.050781"/>
     <use xlink:href="#DejaVuSans-32" x="265.673828"/>
     <use xlink:href="#DejaVuSans-32" x="329.296875"/>
    </g>
   </g>
   <g id="text_12">
    <!-- 2.2kΩ -->
    <g transform="translate(288.274844 124.534437) scale(0.14 -0.14)">
     <use xlink:href="#DejaVuSans-32"/>
     <use xlink:href="#DejaVuSans-2e" x="63.623047"/>
     <use xlink:href="#DejaVuSans-32" x="95.410156"/>
     <use xlink:href="#DejaVuSans-6b" x="159.033203"/>
     <use xlink:href="#DejaVuSans-3a9" x="216.943359"/>
    </g>
   </g>
   <g id="text_13">
    <!-- 2N2222 -->
    <g transform="translate(406.01 144.209125) scale(0.14 -0.14)">
     <use xlink:href="#DejaVuSans-32"/>
     <use xlink:href="#DejaVuSans-4e" x="63.623047"/>
     <use xlink:href="#DejaVuSans-32" x="138.427734"/>
     <use xlink:href="#DejaVuSans-32" x="202.050781"/>
     <use xlink:href="#DejaVuSans-32" x="265.673828"/>
     <use xlink:href="#DejaVuSans-32" x="329.296875"/>
    </g>
   </g>
   <g id="text_14">
    <!-- 2N2222 -->
    <g transform="translate(406.01 385.289125) scale(0.14 -0.14)">
     <use xlink:href="#DejaVuSans-32"/>
     <use xlink:href="#DejaVuSans-4e" x="63.623047"/>
     <use xlink:href="#DejaVuSans-32" x="138.427734"/>
     <use xlink:href="#DejaVuSans-32" x="202.050781"/>
     <use xlink:href="#DejaVuSans-32" x="265.673828"/>
     <use xlink:href="#DejaVuSans-32" x="329.296875"/>
    </g>
   </g>
   <g id="text_15">
    <!-- 330Ω -->
    <g transform="translate(339.848437 464.069125) scale(0.14 -0.14)">
     <defs>
      <path id="DejaVuSans-33" d="M 2597 2516 
Q 3050 2419 3304 2112 
Q 3559 1806 3559 1356 
Q 3559 666 3084 287 
Q 2609 -91 1734 -91 
Q 1441 -91 1130 -33 
Q 819 25 488 141 
L 488 750 
Q 750 597 1062 519 
Q 1375 441 1716 441 
Q 2309 441 2620 675 
Q 2931 909 2931 1356 
Q 2931 1769 2642 2001 
Q 2353 2234 1838 2234 
L 1294 2234 
L 1294 2753 
L 1863 2753 
Q 2328 2753 2575 2939 
Q 2822 3125 2822 3475 
Q 2822 3834 2567 4026 
Q 2313 4219 1838 4219 
Q 1578 4219 1281 4162 
Q 984 4106 628 3988 
L 628 4550 
Q 988 4650 1302 4700 
Q 1616 4750 1894 4750 
Q 2613 4750 3031 4423 
Q 3450 4097 3450 3541 
Q 3450 3153 3228 2886 
Q 3006 2619 2597 2516 
z
" transform="scale(0.015625)"/>
      <path id="DejaVuSans-30" d="M 2034 4250 
Q 1547 4250 1301 3770 
Q 1056 3291 1056 2328 
Q 1056 1369 1301 889 
Q 1547 409 2034 409 
Q 2525 409 2770 889 
Q 3016 1369 3016 2328 
Q 3016 3291 2770 3770 
Q 2525 4250 2034 4250 
z
M 2034 4750 
Q 2819 4750 3233 4129 
Q 3647 3509 3647 2328 
Q 3647 1150 3233 529 
Q 2819 -91 2034 -91 
Q 1250 -91 836 529 
Q 422 1150 422 2328 
Q 422 3509 836 4129 
Q 1250 4750 2034 4750 
z
" transform="scale(0.015625)"/>
     </defs>
     <use xlink:href="#DejaVuSans-33"/>
     <use xlink:href="#DejaVuSans-33" x="63.623047"/>
     <use xlink:href="#DejaVuSans-30" x="127.246094"/>
     <use xlink:href="#DejaVuSans-3a9" x="190.869141"/>
    </g>
   </g>
   <g id="text_16">
    <!-- 2.2kΩ -->
    <g transform="translate(288.274844 365.614437) scale(0.14 -0.14)">
     <use xlink:href="#DejaVuSans-32"/>
     <use xlink:href="#DejaVuSans-2e" x="63.623047"/>
     <use xlink:href="#DejaVuSans-32" x="95.410156"/>
     <use xlink:href="#DejaVuSans-6b" x="159.033203"/>
     <use xlink:href="#DejaVuSans-3a9" x="216.943359"/>
    </g>
   </g>
   <g id="text_17">
    <!-- 2.2kΩ -->
    <g transform="translate(284.674844 772.534437) scale(0.14 -0.14)">
     <use xlink:href="#DejaVuSans-32"/>
     <use xlink:href="#DejaVuSans-2e" x="63.623047"/>
     <use xlink:href="#DejaVuSans-32" x="95.410156"/>
     <use xlink:href="#DejaVuSans-6b" x="159.033203"/>
     <use xlink:href="#DejaVuSans-3a9" x="216.943359"/>
    </g>
   </g>
   <g id="text_18">
    <!-- 2N2222 -->
    <g transform="translate(406.01 792.209125) scale(0.14 -0.14)">
     <use xlink:href="#DejaVuSans-32"/>
     <use xlink:href="#DejaVuSans-4e" x="63.623047"/>
     <use xlink:href="#DejaVuSans-32" x="138.427734"/>
     <use xlink:href="#DejaVuSans-32" x="202.050781"/>
     <use xlink:href="#DejaVuSans-32" x="265.673828"/>
     <use xlink:href="#DejaVuSans-32" x="329.296875"/>
    </g>
   </g>
   <g id="text_19">
    <!-- 330Ω -->
    <g transform="translate(339.848437 870.989125) scale(0.14 -0.14)">
     <use xlink:href="#DejaVuSans-33"/>
     <use xlink:href="#DejaVuSans-33" x="63.623047"/>
     <use xlink:href="#DejaVuSans-30" x="127.246094"/>
     <use xlink:href="#DejaVuSans-3a9" x="190.869141"/>
    </g>
   </g>
   <g id="text_20">
    <!-- 2.2kΩ -->
    <g transform="translate(531.334844 390.694437) scale(0.14 -0.14)">
     <use xlink:href="#DejaVuSans-32"/>
     <use xlink:href="#DejaVuSans-2e" x="63.623047"/>
     <use xlink:href="#DejaVuSans-32" x="95.410156"/>
     <use xlink:href="#DejaVuSans-6b" x="159.033203"/>
     <use xlink:href="#DejaVuSans-3a9" x="216.943359"/>
    </g>
   </g>
   <g id="text_21">
    <!-- 2N2222 -->
    <g transform="translate(649.07 410.369125) scale(0.14 -0.14)">
     <use xlink:href="#DejaVuSans-32"/>
     <use xlink:href="#DejaVuSans-4e" x="63.623047"/>
     <use xlink:href="#DejaVuSans-32" x="138.427734"/>
     <use xlink:href="#DejaVuSans-32" x="202.050781"/>
     <use xlink:href="#DejaVuSans-32" x="265.673828"/>
     <use xlink:href="#DejaVuSans-32" x="329.296875"/>
    </g>
   </g>
   <g id="text_22">
    <!-- 2.2kΩ -->
    <g transform="translate(531.334844 797.614437) scale(0.14 -0.14)">
     <use xlink:href="#DejaVuSans-32"/>
     <use xlink:href="#DejaVuSans-2e" x="63.623047"/>
     <use xlink:href="#DejaVuSans-32" x="95.410156"/>
     <use xlink:href="#DejaVuSans-6b" x="159.033203"/>
     <use xlink:href="#DejaVuSans-3a9" x="216.943359"/>
    </g>
   </g>
   <g id="text_23">
    <!-- 2N2222 -->
    <g transform="translate(649.07 817.289125) scale(0.14 -0.14)">
     <use xlink:href="#DejaVuSans-32"/>
     <use xlink:href="#DejaVuSans-4e" x="63.623047"/>
     <use xlink:href="#DejaVuSans-32" x="138.427734"/>
     <use xlink:href="#DejaVuSans-32" x="202.050781"/>
     <use xlink:href="#DejaVuSans-32" x="265.673828"/>
     <use xlink:href="#DejaVuSans-32" x="329.296875"/>
    </g>
   </g>
   <g id="text_24">
    <!-- 330Ω -->
    <g transform="translate(582.908437 896.069125) scale(0.14 -0.14)">
     <use xlink:href="#DejaVuSans-33"/>
     <use xlink:href="#DejaVuSans-33" x="63.623047"/>
     <use xlink:href="#DejaVuSans-30" x="127.246094"/>
     <use xlink:href="#DejaVuSans-3a9" x="190.869141"/>
    </g>
   </g>
   <g id="text_25">
    <!-- 220Ω -->
    <g transform="translate(776.219219 822.694437) scale(0.14 -0.14)">
     <use xlink:href="#DejaVuSans-32"/>
     <use xlink:href="#DejaVuSans-32" x="63.623047"/>
     <use xlink:href="#DejaVuSans-30" x="127.246094"/>
     <use xlink:href="#DejaVuSans-3a9" x="190.869141"/>
    </g>
   </g>
   <g id="patch_25">
    <path d="M 11.75 34.746 
C 12.466048 34.746 13.152866 34.461511 13.659188 33.955188 
C 14.165511 33.448866 14.45 32.762048 14.45 32.046 
C 14.45 31.329952 14.165511 30.643134 13.659188 30.136812 
C 13.152866 29.630489 12.466048 29.346 11.75 29.346 
C 11.033952 29.346 10.347134 29.630489 9.840812 30.136812 
C 9.334489 30.643134 9.05 31.329952 9.05 32.046 
C 9.05 32.762048 9.334489 33.448866 9.840812 33.955188 
C 10.347134 34.461511 11.033952 34.746 11.75 34.746 
z
" clip-path="url(#ped543a7977)" style="stroke: #000000; stroke-width: 2; stroke-linejoin: miter"/>
   </g>
   <g id="patch_26">
    <path d="M 11.75 142.746 
C 12.466048 142.746 13.152866 142.461511 13.659188 141.955188 
C 14.165511 141.448866 14.45 140.762048 14.45 140.046 
C 14.45 139.329952 14.165511 138.643134 13.659188 138.136812 
C 13.152866 137.630489 12.466048 137.346 11.75 137.346 
C 11.033952 137.346 10.347134 137.630489 9.840812 138.136812 
C 9.334489 138.643134 9.05 139.329952 9.05 140.046 
C 9.05 140.762048 9.334489 141.448866 9.840812 141.955188 
C 10.347134 142.461511 11.033952 142.746 11.75 142.746 
z
" clip-path="url(#ped543a7977)" style="stroke: #000000; stroke-width: 2; stroke-linejoin: miter"/>
   </g>
   <g id="patch_27">
    <path d="M 254.81 142.746 
C 255.526048 142.746 256.212866 142.461511 256.719188 141.955188 
C 257.225511 141.448866 257.51 140.762048 257.51 140.046 
C 257.51 139.329952 257.225511 138.643134 256.719188 138.136812 
C 256.212866 137.630489 255.526048 137.346 254.81 137.346 
C 254.093952 137.346 253.407134 137.630489 252.900812 138.136812 
C 252.394489 138.643134 252.11 139.329952 252.11 140.046 
C 252.11 140.762048 252.394489 141.448866 252.900812 141.955188 
C 253.407134 142.461511 254.093952 142.746 254.81 142.746 
z
" clip-path="url(#ped543a7977)" style="stroke: #000000; stroke-width: 2; stroke-linejoin: miter"/>
   </g>
   <g id="patch_28">
    <path d="M 11.75 250.746 
C 12.466048 250.746 13.152866 250.461511 13.659188 249.955188 
C 14.165511 249.448866 14.45 248.762048 14.45 248.046 
C 14.45 247.329952 14.165511 246.643134 13.659188 246.136812 
C 13.152866 245.630489 12.466048 245.346 11.75 245.346 
C 11.033952 245.346 10.347134 245.630489 9.840812 246.136812 
C 9.334489 246.643134 9.05 247.329952 9.05 248.046 
C 9.05 248.762048 9.334489 249.448866 9.840812 249.955188 
C 10.347134 250.461511 11.033952 250.746 11.75 250.746 
z
" clip-path="url(#ped543a7977)" style="stroke: #000000; stroke-width: 2; stroke-linejoin: miter"/>
   </g>
   <g id="patch_29">
    <path d="M 119.75 250.746 
C 120.466048 250.746 121.152866 250.461511 121.659188 249.955188 
C 122.165511 249.448866 122.45 248.762048 122.45 248.046 
C 122.45 247.329952 122.165511 246.643134 121.659188 246.136812 
C 121.152866 245.630489 120.466048 245.346 119.75 245.346 
C 119.033952 245.346 118.347134 245.630489 117.840812 246.136812 
C 117.334489 246.643134 117.05 247.329952 117.05 248.046 
C 117.05 248.762048 117.334489 249.448866 117.840812 249.955188 
C 118.347134 250.461511 119.033952 250.746 119.75 250.746 
z
" clip-path="url(#ped543a7977)" style="stroke: #000000; stroke-width: 2; stroke-linejoin: miter"/>
   </g>
   <g id="patch_30">
    <path d="M 11.75 574.746 
C 12.466048 574.746 13.152866 574.461511 13.659188 573.955188 
C 14.165511 573.448866 14.45 572.762048 14.45 572.046 
C 14.45 571.329952 14.165511 570.643134 13.659188 570.136812 
C 13.152866 569.630489 12.466048 569.346 11.75 569.346 
C 11.033952 569.346 10.347134 569.630489 9.840812 570.136812 
C 9.334489 570.643134 9.05 571.329952 9.05 572.046 
C 9.05 572.762048 9.334489 573.448866 9.840812 573.955188 
C 10.347134 574.461511 11.033952 574.746 11.75 574.746 
z
" clip-path="url(#ped543a7977)" style="stroke: #000000; stroke-width: 2; stroke-linejoin: miter"/>
   </g>
   <g id="patch_31">
    <path d="M 119.75 682.746 
C 120.466048 682.746 121.152866 682.461511 121.659188 681.955188 
C 122.165511 681.448866 122.45 680.762048 122.45 680.046 
C 122.45 679.329952 122.165511 678.643134 121.659188 678.136812 
C 121.152866 677.630489 120.466048 677.346 119.75 677.346 
C 119.033952 677.346 118.347134 677.630489 117.840812 678.136812 
C 117.334489 678.643134 117.05 679.329952 117.05 680.046 
C 117.05 680.762048 117.334489 681.448866 117.840812 681.955188 
C 118.347134 682.461511 119.033952 682.746 119.75 682.746 
z
" clip-path="url(#ped543a7977)" style="stroke: #000000; stroke-width: 2; stroke-linejoin: miter"/>
   </g>
   <g id="patch_32">
    <path d="M 389.87 574.746 
C 390.586048 574.746 391.272866 574.461511 391.779188 573.955188 
C 392.285511 573.448866 392.57 572.762048 392.57 572.046 
C 392.57 571.329952 392.285511 570.643134 391.779188 570.136812 
C 391.272866 569.630489 390.586048 569.346 389.87 569.346 
C 389.153952 569.346 388.467134 569.630489 387.960812 570.136812 
C 387.454489 570.643134 387.17 571.329952 387.17 572.046 
C 387.17 572.762048 387.454489 573.448866 387.960812 573.955188 
C 388.467134 574.461511 389.153952 574.746 389.87 574.746 
z
" clip-path="url(#ped543a7977)" style="stroke: #000000; stroke-width: 2; stroke-linejoin: miter"/>
   </g>
   <g id="patch_33">
    <path d="M 11.75 898.746 
C 12.466048 898.746 13.152866 898.461511 13.659188 897.955188 
C 14.165511 897.448866 14.45 896.762048 14.45 896.046 
C 14.45 895.329952 14.165511 894.643134 13.659188 894.136812 
C 13.152866 893.630489 12.466048 893.346 11.75 893.346 
C 11.033952 893.346 10.347134 893.630489 9.840812 894.136812 
C 9.334489 894.643134 9.05 895.329952 9.05 896.046 
C 9.05 896.762048 9.334489 897.448866 9.840812 897.955188 
C 10.347134 898.461511 11.033952 898.746 11.75 898.746 
z
" clip-path="url(#ped543a7977)" style="stroke: #000000; stroke-width: 2; stroke-linejoin: miter"/>
   </g>
   <g id="patch_34">
    <path d="M 112.55 898.746 
C 113.266048 898.746 113.952866 898.461511 114.459188 897.955188 
C 114.965511 897.448866 115.25 896.762048 115.25 896.046 
C 115.25 895.329952 114.965511 894.643134 114.459188 894.136812 
C 113.952866 893.630489 113.266048 893.346 112.55 893.346 
C 111.833952 893.346 111.147134 893.630489 110.640812 894.136812 
C 110.134489 894.643134 109.85 895.329952 109.85 896.046 
C 109.85 896.762048 110.134489 897.448866 110.640812 897.955188 
C 111.147134 898.461511 111.833952 898.746 112.55 898.746 
z
" clip-path="url(#ped543a7977)" style="stroke: #000000; stroke-width: 2; stroke-linejoin: miter"/>
   </g>
   <g id="patch_35">
    <path d="M 247.61 790.746 
C 248.326048 790.746 249.012866 790.461511 249.519188 789.955188 
C 250.025511 789.448866 250.31 788.762048 250.31 788.046 
C 250.31 787.329952 250.025511 786.643134 249.519188 786.136812 
C 249.012866 785.630489 248.326048 785.346 247.61 785.346 
C 246.893952 785.346 246.207134 785.630489 245.700812 786.136812 
C 245.194489 786.643134 244.91 787.329952 244.91 788.046 
C 244.91 788.762048 245.194489 789.448866 245.700812 789.955188 
C 246.207134 790.461511 246.893952 790.746 247.61 790.746 
z
" clip-path="url(#ped543a7977)" style="stroke: #000000; stroke-width: 2; stroke-linejoin: miter"/>
   </g>
   <g id="patch_36">
    <path d="M 389.87 34.746 
C 390.586048 34.746 391.272866 34.461511 391.779188 33.955188 
C 392.285511 33.448866 392.57 32.762048 392.57 32.046 
C 392.57 31.329952 392.285511 30.643134 391.779188 30.136812 
C 391.272866 29.630489 390.586048 29.346 389.87 29.346 
C 389.153952 29.346 388.467134 29.630489 387.960812 30.136812 
C 387.454489 30.643134 387.17 31.329952 387.17 32.046 
C 387.17 32.762048 387.454489 33.448866 387.960812 33.955188 
C 388.467134 34.461511 389.153952 34.746 389.87 34.746 
z
" clip-path="url(#ped543a7977)" style="stroke: #000000; stroke-width: 2; stroke-linejoin: miter"/>
   </g>
   <g id="patch_37">
    <path d="M 389.87 408.906 
C 390.586048 408.906 391.272866 408.621511 391.779188 408.115188 
C 392.285511 407.608866 392.57 406.922048 392.57 406.206 
C 392.57 405.489952 392.285511 404.803134 391.779188 404.296812 
C 391.272866 403.790489 390.586048 403.506 389.87 403.506 
C 389.153952 403.506 388.467134 403.790489 387.960812 404.296812 
C 387.454489 404.803134 387.17 405.489952 387.17 406.206 
C 387.17 406.922048 387.454489 407.608866 387.960812 408.115188 
C 388.467134 408.621511 389.153952 408.906 389.87 408.906 
z
" clip-path="url(#ped543a7977)" style="stroke: #000000; stroke-width: 2; stroke-linejoin: miter"/>
   </g>
   <g id="patch_38">
    <path d="M 389.87 815.826 
C 390.586048 815.826 391.272866 815.541511 391.779188 815.035188 
C 392.285511 814.528866 392.57 813.842048 392.57 813.126 
C 392.57 812.409952 392.285511 811.723134 391.779188 811.216812 
C 391.272866 810.710489 390.586048 810.426 389.87 810.426 
C 389.153952 810.426 388.467134 810.710489 387.960812 811.216812 
C 387.454489 811.723134 387.17 812.409952 387.17 813.126 
C 387.17 813.842048 387.454489 814.528866 387.960812 815.035188 
C 388.467134 815.541511 389.153952 815.826 389.87 815.826 
z
" clip-path="url(#ped543a7977)" style="stroke: #000000; stroke-width: 2; stroke-linejoin: miter"/>
   </g>
   <g id="patch_39">
    <path d="M 632.93 840.906 
C 633.646048 840.906 634.332866 840.621511 634.839188 840.115188 
C 635.345511 839.608866 635.63 838.922048 635.63 838.206 
C 635.63 837.489952 635.345511 836.803134 634.839188 836.296812 
C 634.332866 835.790489 633.646048 835.506 632.93 835.506 
C 632.213952 835.506 631.527134 835.790489 631.020812 836.296812 
C 630.514489 836.803134 630.23 837.489952 630.23 838.206 
C 630.23 838.922048 630.514489 839.608866 631.020812 840.115188 
C 631.527134 840.621511 632.213952 840.906 632.93 840.906 
z
" clip-path="url(#ped543a7977)" style="stroke: #000000; stroke-width: 2; stroke-linejoin: miter"/>
   </g>
   <g id="patch_40">
    <path d="M 740.93 840.906 
C 741.646048 840.906 742.332866 840.621511 742.839188 840.115188 
C 743.345511 839.608866 743.63 838.922048 743.63 838.206 
C 743.63 837.489952 743.345511 836.803134 742.839188 836.296812 
C 742.332866 835.790489 741.646048 835.506 740.93 835.506 
C 740.213952 835.506 739.527134 835.790489 739.020812 836.296812 
C 738.514489 836.803134 738.23 837.489952 738.23 838.206 
C 738.23 838.922048 738.514489 839.608866 739.020812 840.115188 
C 739.527134 840.621511 740.213952 840.906 740.93 840.906 
z
" clip-path="url(#ped543a7977)" style="stroke: #000000; stroke-width: 2; stroke-linejoin: miter"/>
   </g>
  </g>
 </g>
 <defs>
  <clipPath id="ped543a7977">
   <rect x="0" y="-0" width="970.61" height="973.926"/>
  </clipPath>
 </defs>
</svg>
